<?xml version="1.0" encoding="UTF-8"?>
<svg xmlns="http://www.w3.org/2000/svg" viewBox="0 0 512 512">
  <rect width="512" height="512" rx="96" fill="#121417"/>
  <g transform="translate(56, 80) scale(0.78)">
    <path fill="#f37216" d="M420,20H128c-15,0-49,10-60,20C45,60,32,110,52,135c28,33,132,17,172,21,16,3,8,31-8,30H24L8,245c66-3,135,4,200,0,6,0,18-1,27-2,30-3,50-20,60-50,12-36,9-72-32-84C222,97,174,105,132,102c-12-1-26-2-21-17,3-9,12-9,19-11h181l8-54Z"/>
    <path fill="#f37216" opacity="0.85" d="M0,340l420,35v-30L128,300v20L44,332c-18,4-33,7-35,7s-3,1-3,2c0,0,0,0,0,0l-6-1Z"/>
    <path fill="#f37216" opacity="0.85" d="M128,200v20L44,232c-18,4-33,8-35,8s-3,1-3,2l35-3,87-11,124,14,168,18v-16L128,200Z"/>
    <path fill="#f37216" opacity="0.85" d="M128,260v20L44,292c-18,4-33,8-35,8s-3,1-3,2l35-3,87-8,124,8,168,14v-16L128,260Z"/>
  </g>
</svg>